<svg width="514" height="514" viewBox="0 0 514 514" fill="none" xmlns="http://www.w3.org/2000/svg">
<path fill-rule="evenodd" clip-rule="evenodd" d="M506.507 40.5067C515.616 31.3922 515.616 16.6214 506.507 7.50668C497.392 -1.60265 482.621 -1.60265 473.507 7.50668L256.68 224.333L39.8533 7.50668C30.7388 -1.60265 15.968 -1.60265 6.85333 7.50668C-2.256 16.6212 -2.256 31.392 6.85333 40.5067L223.68 257.333L6.85333 474.16C-2.256 483.275 -2.256 498.045 6.85333 507.16C15.9679 516.269 30.7387 516.269 39.8533 507.16L256.68 290.333L473.507 507.16C482.621 516.269 497.392 516.269 506.507 507.16C515.616 498.046 515.616 483.275 506.507 474.16L289.68 257.333L506.507 40.5067Z" fill="#AE8BF8"/>
</svg>
