<svg width="48" height="48" viewBox="0 0 48 48" fill="none" xmlns="http://www.w3.org/2000/svg">
<path fill-rule="evenodd" clip-rule="evenodd" d="M3.473 0.253401C2.72928 -0.118652 1.84579 -0.0788774 1.13823 0.358664C0.430677 0.795805 0 1.56846 0 2.40016V45.6C0 46.4316 0.430718 47.2043 1.13823 47.6419C1.84578 48.079 2.72933 48.1184 3.473 47.7467L46.6733 26.1468C47.4866 25.7402 48 24.9094 48 24.0001C48 23.0909 47.4865 22.26 46.6733 21.8534L3.473 0.253401ZM4.79966 26.3996H11.9997C13.3252 26.3996 14.4 25.3252 14.4 23.9997C14.4 22.6742 13.3252 21.5999 11.9997 21.5999H4.79966V6.28347L40.2332 24.0005L4.79966 41.7176V26.3996Z" fill="#F2A78C"/>
</svg>
