<svg width="519" height="113" viewBox="0 0 519 113" fill="none" xmlns="http://www.w3.org/2000/svg">
<path d="M112.72 56.3334C112.72 87.26 87.6466 112.333 56.72 112.333C25.7933 112.333 0.719971 87.26 0.719971 56.3334C0.719971 25.4067 25.7933 0.333374 56.72 0.333374C87.6466 0.333374 112.72 25.4067 112.72 56.3334Z" fill="white"/>
<path d="M315.667 56.3334C315.667 87.26 290.593 112.333 259.667 112.333C228.74 112.333 203.667 87.26 203.667 56.3334C203.667 25.4067 228.74 0.333374 259.667 0.333374C290.593 0.333374 315.667 25.4067 315.667 56.3334Z" fill="white"/>
<path d="M518.613 56.3334C518.613 87.26 493.54 112.333 462.613 112.333C431.687 112.333 406.613 87.26 406.613 56.3334C406.613 25.4067 431.687 0.333374 462.613 0.333374C493.54 0.333374 518.613 25.4067 518.613 56.3334Z" fill="white"/>
</svg>
