<svg width="120" height="120" viewBox="0 0 120 120" fill="none" xmlns="http://www.w3.org/2000/svg">
<rect x="1" y="1" width="118" height="118" rx="15" fill="#191820" stroke="#AE8BF8" stroke-width="2"/>
<path d="M39.157 43.2216H36.549C36.5376 42.6534 36.4325 42.1534 36.2337 41.7216C36.0348 41.2841 35.7621 40.9176 35.4155 40.6222C35.0746 40.321 34.674 40.0937 34.2138 39.9403C33.7536 39.7869 33.2564 39.7102 32.7223 39.7102C31.6939 39.7102 30.728 39.9716 29.8246 40.4943C28.9212 41.017 28.1513 41.7784 27.5149 42.7784C26.8786 43.7784 26.4411 44.9972 26.2024 46.4347C25.9695 47.8324 25.9979 49.0057 26.2876 49.9545C26.5774 50.9034 27.0661 51.6222 27.7536 52.1108C28.4467 52.5937 29.2791 52.8352 30.2507 52.8352C30.8189 52.8352 31.3729 52.7614 31.9126 52.6136C32.4581 52.4602 32.9638 52.2358 33.4297 51.9403C33.8956 51.6449 34.3075 51.2841 34.6655 50.858C35.0291 50.4261 35.3132 49.9318 35.5178 49.375H38.1598C37.8757 50.2386 37.4751 51.0284 36.9581 51.7443C36.4411 52.4602 35.8303 53.0795 35.1257 53.6023C34.4212 54.125 33.6484 54.5284 32.8075 54.8125C31.9666 55.0966 31.0774 55.2386 30.1399 55.2386C28.6001 55.2386 27.2876 54.8722 26.2024 54.1392C25.1229 53.4006 24.3473 52.3494 23.8757 50.9858C23.4098 49.6222 23.3303 47.9972 23.6371 46.1108C23.9496 44.2756 24.5462 42.7017 25.4268 41.3892C26.3132 40.071 27.3928 39.0625 28.6655 38.3636C29.9439 37.6591 31.3246 37.3068 32.8075 37.3068C33.745 37.3068 34.603 37.4403 35.3814 37.7074C36.1598 37.9687 36.8303 38.3551 37.3928 38.8665C37.9609 39.3722 38.3984 39.9915 38.7053 40.7244C39.0121 41.4517 39.1626 42.2841 39.157 43.2216ZM44.0043 47.2273L42.7259 55H40.1776L43.0753 37.5455H45.5895L44.5156 44.0398H44.6776C45.0923 43.3295 45.6491 42.7699 46.348 42.3608C47.0526 41.946 47.9162 41.7386 48.9389 41.7386C49.8366 41.7386 50.5895 41.9233 51.1974 42.2926C51.8111 42.6619 52.2429 43.2131 52.4929 43.946C52.7486 44.6733 52.7884 45.5824 52.6122 46.6733L51.2145 55H48.6662L49.9957 46.9801C50.1548 46.0199 50.0298 45.2756 49.6207 44.7472C49.2116 44.2131 48.5724 43.946 47.7031 43.946C47.0952 43.946 46.5327 44.0739 46.0156 44.3295C45.5043 44.5852 45.0724 44.9602 44.7202 45.4545C44.3679 45.9432 44.1293 46.5341 44.0043 47.2273ZM58.3821 55.2898C57.5526 55.2898 56.8281 55.1364 56.2088 54.8295C55.5895 54.517 55.1321 54.0653 54.8366 53.4744C54.5412 52.8835 54.4645 52.1591 54.6065 51.3011C54.7315 50.5625 54.9759 49.9545 55.3395 49.4773C55.7088 49 56.1577 48.6222 56.6861 48.3438C57.2145 48.0597 57.7884 47.8466 58.4077 47.7045C59.027 47.5625 59.652 47.4574 60.2827 47.3892C61.0781 47.2983 61.723 47.2216 62.2173 47.1591C62.7173 47.0966 63.0923 47 63.3423 46.8693C63.5923 46.733 63.7429 46.5114 63.794 46.2045V46.1449C63.9134 45.4062 63.8054 44.8324 63.4702 44.4233C63.1406 44.0085 62.5668 43.8011 61.7486 43.8011C60.8963 43.8011 60.1804 43.9886 59.6009 44.3636C59.027 44.7386 58.6037 45.1591 58.331 45.625L56.0469 45.0795C56.456 44.2841 56.9759 43.642 57.6065 43.1534C58.2429 42.6591 58.9389 42.3011 59.6946 42.0795C60.4503 41.8523 61.223 41.7386 62.0128 41.7386C62.5355 41.7386 63.0781 41.8011 63.6406 41.9261C64.2031 42.0455 64.7145 42.267 65.1747 42.5909C65.6406 42.9148 65.9872 43.3778 66.2145 43.9801C66.4418 44.5767 66.4759 45.3523 66.3168 46.3068L64.8764 55H62.3878L62.6946 53.2102H62.5923C62.3764 53.5398 62.0753 53.8636 61.6889 54.1818C61.3082 54.5 60.8423 54.7642 60.2912 54.9744C59.7401 55.1847 59.1037 55.2898 58.3821 55.2898ZM59.2514 53.2443C59.9616 53.2443 60.5895 53.1051 61.1349 52.8267C61.6861 52.5483 62.1321 52.1847 62.473 51.7358C62.8139 51.2812 63.027 50.7955 63.1122 50.2784L63.3935 48.5909C63.2855 48.6818 63.0952 48.7642 62.8224 48.8381C62.5554 48.9119 62.2543 48.9773 61.919 49.0341C61.5838 49.0909 61.2543 49.1392 60.9304 49.179C60.6122 49.2187 60.348 49.2557 60.1378 49.2898C59.6378 49.3523 59.169 49.4574 58.7315 49.6051C58.2997 49.7528 57.9389 49.9659 57.6491 50.2443C57.3594 50.517 57.1776 50.8807 57.1037 51.3352C57.0014 51.9659 57.152 52.4432 57.5554 52.767C57.9645 53.0852 58.5298 53.2443 59.2514 53.2443ZM76.5632 41.9091L76.2308 43.9545H69.0803L69.4126 41.9091H76.5632ZM71.8416 38.7727H74.3899L72.3274 51.1562C72.2479 51.6506 72.2621 52.0227 72.37 52.2727C72.478 52.517 72.6428 52.6847 72.8643 52.7756C73.0916 52.8608 73.3445 52.9034 73.6229 52.9034C73.8274 52.9034 74.0064 52.8892 74.1598 52.8608C74.3132 52.8324 74.4354 52.8097 74.5263 52.7926L74.6626 54.8977C74.4922 54.9545 74.2621 55.0114 73.9723 55.0682C73.6882 55.1307 73.3416 55.1648 72.9325 55.1705C72.2621 55.1818 71.657 55.0625 71.1172 54.8125C70.5774 54.5568 70.174 54.1705 69.907 53.6534C69.6399 53.1307 69.5746 52.4744 69.7109 51.6847L71.8416 38.7727ZM85.4929 41.9091L85.1605 43.9545H78.0099L78.3423 41.9091H85.4929ZM80.7713 38.7727H83.3196L81.2571 51.1562C81.1776 51.6506 81.1918 52.0227 81.2997 52.2727C81.4077 52.517 81.5724 52.6847 81.794 52.7756C82.0213 52.8608 82.2741 52.9034 82.5526 52.9034C82.7571 52.9034 82.9361 52.8892 83.0895 52.8608C83.2429 52.8324 83.3651 52.8097 83.456 52.7926L83.5923 54.8977C83.4219 54.9545 83.1918 55.0114 82.902 55.0682C82.6179 55.1307 82.2713 55.1648 81.8622 55.1705C81.1918 55.1818 80.5866 55.0625 80.0469 54.8125C79.5071 54.5568 79.1037 54.1705 78.8366 53.6534C78.5696 53.1307 78.5043 52.4744 78.6406 51.6847L80.7713 38.7727ZM86.9396 59.9091C86.5533 59.9091 86.2095 59.8778 85.9084 59.8153C85.6072 59.7585 85.3828 59.696 85.2351 59.6278L86.2067 57.5398C86.6555 57.6648 87.0561 57.7131 87.4084 57.6847C87.7663 57.6563 88.1016 57.5085 88.4141 57.2415C88.7266 56.9744 89.0447 56.554 89.3686 55.9801L89.8459 55.1193L87.2805 41.9091H89.9055L91.5249 52.0938H91.6612L96.6726 41.9091H99.5107L91.6612 56.7301C91.2919 57.4347 90.8714 58.0199 90.3999 58.4858C89.9339 58.9574 89.4112 59.3125 88.8317 59.5511C88.2578 59.7898 87.6271 59.9091 86.9396 59.9091ZM39.8931 84L42.7908 66.5455H49.1829C50.4215 66.5455 51.413 66.75 52.1573 67.1591C52.9073 67.5625 53.4244 68.1108 53.7085 68.804C53.9925 69.4915 54.0607 70.267 53.913 71.1307C53.7937 71.858 53.5579 72.4687 53.2056 72.9631C52.859 73.4574 52.4386 73.8551 51.9442 74.1562C51.4499 74.4574 50.93 74.6761 50.3846 74.8125L50.3505 74.983C50.9187 75.0114 51.4499 75.1989 51.9442 75.5455C52.4442 75.8864 52.8249 76.3722 53.0863 77.0028C53.3477 77.6335 53.4073 78.4006 53.2653 79.304C53.1119 80.196 52.7653 80.9972 52.2255 81.7074C51.6914 82.4119 50.9556 82.9716 50.0181 83.3864C49.0806 83.7955 47.9357 84 46.5835 84H39.8931ZM42.9016 81.7415H46.7028C47.9641 81.7415 48.9073 81.4972 49.5323 81.0085C50.163 80.5199 50.5437 79.9091 50.6744 79.1761C50.7596 78.625 50.6999 78.1193 50.4954 77.6591C50.2965 77.1989 49.9613 76.8324 49.4897 76.5597C49.0238 76.2869 48.4386 76.1506 47.734 76.1506H43.8391L42.9016 81.7415ZM44.1886 74.0966H47.7085C48.2994 74.0966 48.8505 73.983 49.3619 73.7557C49.8789 73.5284 50.3079 73.2074 50.6488 72.7926C50.9954 72.3778 51.2113 71.892 51.2965 71.3352C51.4215 70.608 51.271 70.0028 50.8448 69.5199C50.4244 69.0312 49.6942 68.7869 48.6545 68.7869H45.0579L44.1886 74.0966ZM60.9656 84.2642C59.7212 84.2642 58.6815 83.9801 57.8462 83.4119C57.011 82.8381 56.4229 82.0369 56.082 81.0085C55.7468 79.9744 55.69 78.7727 55.9116 77.4034C56.1275 76.0625 56.5621 74.892 57.2156 73.892C57.8746 72.892 58.6985 72.1165 59.6871 71.5653C60.6815 71.0142 61.7866 70.7386 63.0025 70.7386C64.2468 70.7386 65.2837 71.0256 66.1133 71.5994C66.9485 72.1733 67.5366 72.9773 67.8775 74.0114C68.2184 75.0455 68.2781 76.25 68.0565 77.625C67.8406 78.9545 67.4002 80.1193 66.7354 81.1193C66.0763 82.1136 65.2525 82.8864 64.2638 83.4375C63.2752 83.9886 62.1758 84.2642 60.9656 84.2642ZM61.1104 82.125C61.9286 82.125 62.6417 81.9091 63.2496 81.4773C63.8633 81.0455 64.3633 80.4716 64.7496 79.7557C65.136 79.0398 65.4002 78.2557 65.5423 77.4034C65.6729 76.5795 65.6701 75.8267 65.5337 75.1449C65.4031 74.4574 65.119 73.9062 64.6815 73.4915C64.244 73.0767 63.636 72.8693 62.8576 72.8693C62.0394 72.8693 61.3207 73.0881 60.7013 73.5256C60.0877 73.9574 59.5877 74.5341 59.2013 75.2557C58.8207 75.9773 58.5621 76.7642 58.4258 77.6165C58.2951 78.4347 58.2951 79.1875 58.4258 79.875C58.5565 80.5568 58.8406 81.1023 59.2781 81.5114C59.7156 81.9205 60.3263 82.125 61.1104 82.125ZM73.5302 70.9091L75.5756 76.0057L79.3342 70.9091H82.1211L76.9478 77.4545L79.9734 84H77.1864L75.0558 79.108L71.2972 84H68.5018L73.6665 77.4545L70.7347 70.9091H73.5302Z" fill="#AE8BF8"/>
</svg>
